<svg width="50" height="50" viewBox="0 0 50 50" fill="none" xmlns="http://www.w3.org/2000/svg">
<path d="M34.3266 17.3104C33.8711 16.805 33.2381 16.4942 32.5595 16.4408C32.507 15.7623 32.1961 15.1295 31.6897 14.674C30.6718 13.7709 29.138 13.7761 28.1252 14.6852C27.3734 15.3654 27.0772 16.4167 27.3631 17.3896C27.5655 18.0474 27.395 18.7628 26.917 19.2579L20.2583 25.9141C19.7631 26.3919 19.0475 26.5624 18.3904 26.3601C17.4173 26.0742 16.3666 26.3704 15.6854 27.122C14.776 28.1337 14.7708 29.6671 15.6742 30.6847C16.1298 31.1901 16.7628 31.5018 17.4414 31.5543C17.5568 33.0154 18.8348 34.1063 20.2962 33.9917C21.7576 33.8764 22.8488 32.5987 22.7342 31.1376C22.7204 30.9577 22.6877 30.7795 22.6369 30.6064C22.4345 29.9486 22.605 29.2331 23.083 28.7381L29.7417 22.0819C30.2369 21.604 30.9534 21.4336 31.6105 21.6359C32.5836 21.9217 33.6343 21.6256 34.3146 20.8739C35.224 19.8623 35.2292 18.328 34.3258 17.3104H34.3266Z" stroke="#6F6F7D" stroke-width="2" stroke-miterlimit="10"/>
</svg>
