<svg width="50" height="50" viewBox="0 0 50 50" fill="none" xmlns="http://www.w3.org/2000/svg">
<path d="M27.1361 16.3614L28.1312 16.2619L28.1312 16.2619L27.1361 16.3614ZM26.9838 15.5416L26.095 16L26.095 16L26.9838 15.5416ZM27.4311 17.8179L28.2261 17.2114L28.2261 17.2114L27.4311 17.8179ZM28.3595 18.2025L28.2261 17.2114L28.2261 17.2114L28.3595 18.2025ZM29.5979 17.3811L30.2311 18.1551L30.2311 18.1551L29.5979 17.3811ZM30.2853 16.9092L30.5896 17.8618L30.5896 17.8618L30.2853 16.9092ZM30.9872 16.9442L31.3848 16.0266L31.3848 16.0266L30.9872 16.9442ZM31.6243 17.4822L30.9172 18.1893L30.9172 18.1893L31.6243 17.4822ZM32.5178 18.3757L33.2249 17.6686L33.2249 17.6686L32.5178 18.3757ZM33.0558 19.0128L33.9733 18.6152L33.9733 18.6152L33.0558 19.0128ZM33.0908 19.7146L34.0434 20.019L34.0434 20.0189L33.0908 19.7146ZM32.6188 20.4021L31.8449 19.7689L31.8449 19.7689L32.6188 20.4021ZM31.7975 21.6406L30.8064 21.5072L30.8064 21.5072L31.7975 21.6406ZM32.182 22.5689L31.5755 23.364L31.5755 23.364L32.182 22.5689ZM33.6385 22.8639L33.738 21.8688L33.738 21.8688L33.6385 22.8639ZM34.4584 23.0162L34.9168 22.1275L34.9168 22.1275L34.4584 23.0162ZM34.9299 23.5373L35.8599 23.1696L35.8599 23.1696L34.9299 23.5373ZM34.93 26.4626L34 26.095L34 26.095L34.93 26.4626ZM34.4583 26.9838L34.9166 27.8726L34.9166 27.8726L34.4583 26.9838ZM33.6386 27.1361L33.5391 26.1411L33.5065 26.1444L33.4742 26.1497L33.6386 27.1361ZM33.6386 27.1361L33.7381 28.1312L33.7707 28.1279L33.803 28.1225L33.6386 27.1361ZM32.1825 27.4309L31.5762 26.6357L31.5762 26.6357L32.1825 27.4309ZM31.7979 28.3596L30.8068 28.4931L30.8068 28.4931L31.7979 28.3596ZM32.619 29.5976L31.845 30.2308L31.845 30.2308L32.619 29.5976ZM33.0908 30.2848L32.1383 30.5892L32.1383 30.5892L33.0908 30.2848ZM33.0558 30.9869L32.1383 30.5892L32.1383 30.5892L33.0558 30.9869ZM32.5179 31.6238L33.225 32.3309L33.225 32.3309L32.5179 31.6238ZM31.6243 32.5174L30.9172 31.8102L30.9172 31.8103L31.6243 32.5174ZM30.9873 33.0554L31.3849 33.9729L31.3849 33.9729L30.9873 33.0554ZM30.2854 33.0904L29.981 34.0429L29.981 34.0429L30.2854 33.0904ZM29.5979 32.6184L30.2312 31.8444L30.2226 31.8376L29.5979 32.6184ZM29.5979 32.6184L28.9646 33.3924L28.9732 33.3993L29.5979 32.6184ZM28.3595 31.7971L28.4928 30.806L28.4928 30.806L28.3595 31.7971ZM27.4311 32.1816L28.2262 32.7882L28.2262 32.7881L27.4311 32.1816ZM27.1362 33.6383L26.1411 33.5388L26.1411 33.5388L27.1362 33.6383ZM26.9837 34.4585L26.095 34L26.095 34L26.9837 34.4585ZM26.4628 34.9299L26.095 34L26.095 34L26.4628 34.9299ZM23.5373 34.9299L23.905 34L23.905 34L23.5373 34.9299ZM23.0162 34.4584L23.905 34L23.905 34L23.0162 34.4584ZM22.8639 33.6385L21.8688 33.7381L21.8688 33.7381L22.8639 33.6385ZM22.5689 32.182L21.7739 32.7885L21.7739 32.7885L22.5689 32.182ZM21.6406 31.7975L21.5073 30.8064L21.5073 30.8064L21.6406 31.7975ZM20.4021 32.6189L19.7688 31.8449L19.753 31.8579L19.7377 31.8714L20.4021 32.6189ZM20.4021 32.6189L21.0353 33.3928L21.0511 33.3799L21.0664 33.3663L20.4021 32.6189ZM19.7146 33.0908L20.0189 34.0434L20.0189 34.0434L19.7146 33.0908ZM19.0127 33.0558L18.6152 33.9734L18.6152 33.9734L19.0127 33.0558ZM18.3756 32.5178L19.0827 31.8107L19.0827 31.8107L18.3756 32.5178ZM17.4822 31.6243L16.7751 32.3315L16.7751 32.3315L17.4822 31.6243ZM16.9441 30.9873L17.8617 30.5897L17.8617 30.5897L16.9441 30.9873ZM16.9091 30.2854L17.8617 30.5897L17.8617 30.5897L16.9091 30.2854ZM17.3811 29.5979L18.1551 30.2311L18.1551 30.2311L17.3811 29.5979ZM18.2025 28.3594L19.1935 28.4928L19.1935 28.4928L18.2025 28.3594ZM17.8179 27.4311L18.4244 26.636L18.4244 26.636L17.8179 27.4311ZM16.3614 27.1361L16.2619 28.1312L16.2619 28.1312L16.3614 27.1361ZM15.5416 26.9838L16 26.095L16 26.095L15.5416 26.9838ZM15.07 26.4627L14.1401 26.8304L14.1401 26.8304L15.07 26.4627ZM15.0701 23.5372L14.1402 23.1694L14.1402 23.1694L15.0701 23.5372ZM15.5415 23.0163L15.083 22.1276L15.083 22.1276L15.5415 23.0163ZM16.3616 22.8638V21.8638H16.3117L16.262 21.8688L16.3616 22.8638ZM16.3616 22.8638V23.8638H16.4114L16.4611 23.8589L16.3616 22.8638ZM17.8184 22.5688L17.2118 21.7738L17.2118 21.7738L17.8184 22.5688ZM18.2029 21.6407L19.194 21.5075L19.194 21.5075L18.2029 21.6407ZM17.3813 20.4018L18.1552 19.7686L18.1552 19.7686L17.3813 20.4018ZM16.9091 19.7141L17.8618 19.4099L17.8618 19.4099L16.9091 19.7141ZM16.9441 19.0124L16.0265 18.615L16.0265 18.615L16.9441 19.0124ZM17.4823 18.3751L18.1894 19.0822L18.1894 19.0822L17.4823 18.3751ZM18.3757 17.4818L17.6685 16.7747L17.6685 16.7747L18.3757 17.4818ZM19.0128 16.9437L18.6152 16.0262L18.6152 16.0262L19.0128 16.9437ZM19.7146 16.9087L20.0189 15.9561L20.0189 15.9561L19.7146 16.9087ZM20.4022 17.3808L21.0354 16.6068L21.0354 16.6068L20.4022 17.3808ZM21.6404 18.2021L21.7739 17.211L21.7739 17.211L21.6404 18.2021ZM22.5691 17.8174L21.7739 17.211L21.7739 17.211L22.5691 17.8174ZM22.8639 16.3613L23.8589 16.4608L23.8589 16.4608L22.8639 16.3613ZM23.0162 15.5417L22.1274 15.0834L22.1274 15.0834L23.0162 15.5417ZM23.5374 15.07L23.905 16L23.905 16L23.5374 15.07ZM26.4627 15.07L26.8304 14.1401L26.8304 14.1401L26.4627 15.07ZM28.1312 16.2619C28.1108 16.0583 28.0912 15.8569 28.0626 15.6868C28.0324 15.5068 27.9828 15.297 27.8725 15.0832L26.095 16C26.0721 15.9555 26.0769 15.9388 26.0902 16.018C26.1052 16.107 26.1181 16.2309 26.1411 16.4609L28.1312 16.2619ZM28.2261 17.2114C28.2894 17.2943 28.2693 17.331 28.2342 17.136C28.2008 16.9504 28.1739 16.6892 28.1312 16.2619L26.1411 16.4609C26.1805 16.8546 26.2152 17.2089 26.2658 17.4902C26.3147 17.7618 26.4009 18.1163 26.636 18.4244L28.2261 17.2114ZM28.2261 17.2114L28.2261 17.2114L26.636 18.4244C27.0718 18.9958 27.7806 19.2894 28.4928 19.1936L28.2261 17.2114ZM28.9646 16.6072C28.6323 16.879 28.4286 17.0448 28.2738 17.1524C28.1111 17.2655 28.1228 17.2253 28.2261 17.2114L28.4928 19.1936C28.8768 19.1419 29.1885 18.9522 29.4152 18.7947C29.6498 18.6316 29.9249 18.4056 30.2311 18.1551L28.9646 16.6072ZM29.981 15.9566C29.7518 16.0298 29.5684 16.1431 29.4198 16.249C29.2793 16.3491 29.123 16.4776 28.9646 16.6072L30.2311 18.1551C30.41 18.0087 30.5068 17.9302 30.5803 17.8778C30.6457 17.8312 30.6373 17.8465 30.5896 17.8618L29.981 15.9566ZM31.3848 16.0266C30.9408 15.8342 30.442 15.8093 29.981 15.9566L30.5896 17.8618L30.5896 17.8618L31.3848 16.0266ZM32.3314 16.7751C32.1867 16.6304 32.044 16.487 31.9142 16.3734C31.7768 16.2532 31.6056 16.1223 31.3848 16.0266L30.5896 17.8618C30.5437 17.8418 30.5369 17.8258 30.5973 17.8787C30.6653 17.9381 30.7537 18.0258 30.9172 18.1893L32.3314 16.7751ZM33.2249 17.6686L32.3314 16.7751L30.9172 18.1893L31.8107 19.0828L33.2249 17.6686ZM33.9733 18.6152C33.8777 18.3944 33.7467 18.2232 33.6266 18.0858C33.513 17.956 33.3696 17.8133 33.2249 17.6686L31.8107 19.0828C31.9741 19.2463 32.0618 19.3347 32.1213 19.4026C32.1742 19.4631 32.1581 19.4563 32.1382 19.4103L33.9733 18.6152ZM34.0434 20.0189C34.1906 19.558 34.1658 19.0592 33.9733 18.6152L32.1382 19.4103L32.1382 19.4103L34.0434 20.0189ZM33.3928 21.0353C33.5224 20.877 33.6509 20.7207 33.751 20.5802C33.8569 20.4316 33.9701 20.2481 34.0434 20.019L32.1382 19.4103C32.1535 19.3626 32.1687 19.3543 32.1221 19.4197C32.0697 19.4932 31.9913 19.5899 31.8449 19.7689L33.3928 21.0353ZM32.7885 21.7739C32.7746 21.8772 32.7345 21.8889 32.8476 21.7262C32.9551 21.5714 33.1209 21.3676 33.3928 21.0353L31.8449 19.7689C31.5943 20.0751 31.3683 20.3502 31.2052 20.5848C31.0477 20.8115 30.8581 21.1232 30.8064 21.5072L32.7885 21.7739ZM32.7885 21.7739L32.7885 21.7739L30.8064 21.5072C30.7106 22.2194 31.0042 22.9282 31.5755 23.364L32.7885 21.7739ZM33.738 21.8688C33.3108 21.8261 33.0495 21.7992 32.864 21.7658C32.6689 21.7307 32.7056 21.7106 32.7885 21.7739L31.5755 23.364C31.8836 23.599 32.2381 23.6853 32.5098 23.7342C32.791 23.7848 33.1454 23.8195 33.539 23.8589L33.738 21.8688ZM34.9168 22.1275C34.703 22.0172 34.4932 21.9676 34.3132 21.9374C34.1431 21.9088 33.9417 21.8892 33.738 21.8688L33.539 23.8589C33.7691 23.8819 33.893 23.8948 33.982 23.9098C34.0612 23.9231 34.0445 23.9279 34 23.905L34.9168 22.1275ZM35.8599 23.1696C35.682 22.7196 35.3469 22.3493 34.9168 22.1275L34 23.905L34 23.905L35.8599 23.1696ZM36 24.3682C36 24.1636 36.0005 23.9613 35.989 23.7891C35.9769 23.607 35.9484 23.3933 35.8599 23.1696L34 23.905C33.9816 23.8584 33.9881 23.8423 33.9935 23.9224C33.9995 24.0125 34 24.137 34 24.3682H36ZM36 25.6319V24.3682H34V25.6319H36ZM35.86 26.8302C35.9484 26.6065 35.9769 26.3929 35.989 26.2108C36.0005 26.0388 36 25.8365 36 25.6319H34C34 25.863 33.9995 25.9875 33.9935 26.0776C33.9881 26.1577 33.9816 26.1416 34 26.095L35.86 26.8302ZM34.9166 27.8726C35.3469 27.6507 35.682 27.2804 35.86 26.8302L34 26.095L34 26.095L34.9166 27.8726ZM33.7381 28.1312C33.9417 28.1108 34.1431 28.0912 34.3132 28.0626C34.4931 28.0324 34.7028 27.9828 34.9166 27.8726L34 26.095C34.0445 26.0721 34.0612 26.077 33.982 26.0902C33.893 26.1052 33.7691 26.1181 33.5391 26.1411L33.7381 28.1312ZM33.803 28.1225L33.803 28.1225L33.4742 26.1497L33.4742 26.1497L33.803 28.1225ZM32.7889 28.2261C32.706 28.2893 32.6693 28.2692 32.8644 28.2341C33.0498 28.2007 33.311 28.1739 33.7381 28.1312L33.5391 26.1411C33.1456 26.1805 32.7913 26.2151 32.5102 26.2657C32.2386 26.3146 31.8842 26.4008 31.5762 26.6357L32.7889 28.2261ZM32.7889 28.2261L32.7889 28.2261L31.5762 26.6357C31.0046 27.0716 30.7108 27.7807 30.8068 28.4931L32.7889 28.2261ZM33.3929 28.9644C33.1212 28.6322 32.9555 28.4285 32.8479 28.2738C32.7348 28.1111 32.775 28.1228 32.7889 28.2261L30.8068 28.4931C30.8585 28.877 31.0481 29.1886 31.2056 29.4152C31.3686 29.6497 31.5946 29.9247 31.845 30.2308L33.3929 28.9644ZM34.0433 29.9803C33.9701 29.7513 33.8569 29.5679 33.751 29.4193C33.651 29.2789 33.5225 29.1227 33.3929 28.9643L31.845 30.2308C31.9914 30.4097 32.0698 30.5064 32.1222 30.5799C32.1688 30.6453 32.1535 30.6369 32.1383 30.5892L34.0433 29.9803ZM33.9733 31.3846C34.1658 30.9404 34.1907 30.4415 34.0433 29.9803L32.1383 30.5892L32.1383 30.5892L33.9733 31.3846ZM33.225 32.3309C33.3697 32.1862 33.5131 32.0436 33.6266 31.9138C33.7467 31.7765 33.8776 31.6053 33.9733 31.3846L32.1383 30.5892C32.1582 30.5433 32.1742 30.5365 32.1213 30.5969C32.0619 30.6648 31.9742 30.7532 31.8108 30.9167L33.225 32.3309ZM32.3314 33.2245L33.225 32.3309L31.8108 30.9167L30.9172 31.8102L32.3314 33.2245ZM31.3849 33.9729C31.6056 33.8773 31.7769 33.7463 31.9142 33.6262C32.044 33.5126 32.1867 33.3692 32.3314 33.2245L30.9172 31.8103C30.7537 31.9737 30.6653 32.0614 30.5974 32.1209C30.5369 32.1737 30.5437 32.1577 30.5897 32.1378L31.3849 33.9729ZM29.981 34.0429C30.442 34.1902 30.9408 34.1653 31.3849 33.9729L30.5897 32.1378L30.5897 32.1378L29.981 34.0429ZM28.9647 33.3924C29.1231 33.522 29.2793 33.6505 29.4198 33.7506C29.5684 33.8565 29.7519 33.9697 29.981 34.0429L30.5897 32.1378C30.6374 32.153 30.6457 32.1683 30.5803 32.1217C30.5068 32.0693 30.4101 31.9909 30.2312 31.8445L28.9647 33.3924ZM28.9732 33.3993L28.9732 33.3993L30.2226 31.8376L30.2226 31.8375L28.9732 33.3993ZM28.2262 32.7881C28.1228 32.7742 28.1111 32.7341 28.2738 32.8472C28.4286 32.9547 28.6324 33.1205 28.9647 33.3924L30.2311 31.8445C29.925 31.5939 29.6499 31.3679 29.4152 31.2048C29.1886 31.0473 28.8769 30.8577 28.4928 30.806L28.2262 32.7881ZM28.2262 32.7881L28.2262 32.7881L28.4928 30.806C27.7807 30.7102 27.0719 31.0038 26.636 31.5751L28.2262 32.7881ZM28.1312 33.7378C28.1739 33.3105 28.2008 33.0492 28.2342 32.8636C28.2693 32.6685 28.2894 32.7052 28.2262 32.7882L26.636 31.5751C26.401 31.8832 26.3147 32.2378 26.2658 32.5094C26.2152 32.7907 26.1805 33.1451 26.1411 33.5388L28.1312 33.7378ZM27.8724 34.917C27.9828 34.7031 28.0324 34.4932 28.0626 34.3132C28.0912 34.143 28.1108 33.9415 28.1312 33.7378L26.1411 33.5388C26.1181 33.769 26.1052 33.8929 26.0902 33.982C26.0769 34.0612 26.072 34.0445 26.095 34L27.8724 34.917ZM26.8306 35.8598C27.2805 35.6819 27.6506 35.3469 27.8724 34.917L26.095 34L26.095 34L26.8306 35.8598ZM25.6316 36C25.8363 36 26.0387 36.0005 26.2109 35.989C26.393 35.9768 26.6068 35.9483 26.8306 35.8598L26.095 34C26.1416 33.9816 26.1577 33.9881 26.0776 33.9935C25.9875 33.9995 25.8629 34 25.6316 34V36ZM24.3682 36H25.6316V34H24.3682V36ZM23.1696 35.8599C23.3933 35.9484 23.607 35.9769 23.7891 35.989C23.9613 36.0005 24.1636 36 24.3682 36V34C24.137 34 24.0125 33.9995 23.9224 33.9935C23.8423 33.9881 23.8584 33.9816 23.905 34L23.1696 35.8599ZM22.1275 34.9168C22.3493 35.3469 22.7196 35.682 23.1696 35.8599L23.905 34L23.905 34L22.1275 34.9168ZM21.8688 33.7381C21.8892 33.9417 21.9088 34.1431 21.9374 34.3132C21.9676 34.4932 22.0172 34.703 22.1275 34.9168L23.905 34C23.9279 34.0445 23.9231 34.0612 23.9098 33.982C23.8948 33.893 23.8819 33.7691 23.8589 33.539L21.8688 33.7381ZM21.7739 32.7885C21.7106 32.7056 21.7307 32.6689 21.7658 32.864C21.7992 33.0495 21.8261 33.3108 21.8688 33.7381L23.8589 33.539C23.8195 33.1454 23.7848 32.791 23.7342 32.5098C23.6853 32.2381 23.599 31.8836 23.364 31.5755L21.7739 32.7885ZM21.7739 32.7885L21.7739 32.7885L23.364 31.5755C22.9282 31.0042 22.2194 30.7106 21.5073 30.8064L21.7739 32.7885ZM21.0353 33.3928C21.3676 33.1209 21.5714 32.9551 21.7262 32.8476C21.8889 32.7345 21.8772 32.7746 21.7739 32.7885L21.5073 30.8064C21.1232 30.858 20.8115 31.0477 20.5848 31.2052C20.3502 31.3683 20.075 31.5944 19.7688 31.8449L21.0353 33.3928ZM21.0664 33.3663L21.0664 33.3663L19.7377 31.8714L19.7377 31.8715L21.0664 33.3663ZM20.0189 34.0434C20.2481 33.9702 20.4315 33.8569 20.5801 33.751C20.7206 33.6509 20.8769 33.5224 21.0353 33.3928L19.7688 31.8449C19.5899 31.9913 19.4932 32.0698 19.4196 32.1222C19.3542 32.1688 19.3626 32.1535 19.4103 32.1383L20.0189 34.0434ZM18.6152 33.9734C19.0592 34.1658 19.5579 34.1907 20.0189 34.0434L19.4103 32.1383L19.4103 32.1383L18.6152 33.9734ZM17.6685 33.2249C17.8132 33.3696 17.9559 33.513 18.0858 33.6266C18.2231 33.7468 18.3944 33.8777 18.6152 33.9734L19.4103 32.1383C19.4562 32.1582 19.463 32.1742 19.4026 32.1213C19.3346 32.0619 19.2462 31.9742 19.0827 31.8107L17.6685 33.2249ZM16.7751 32.3315L17.6685 33.2249L19.0827 31.8107L18.1893 30.9172L16.7751 32.3315ZM16.0266 31.3848C16.1222 31.6056 16.2532 31.7768 16.3733 31.9142C16.4869 32.044 16.6304 32.1868 16.7751 32.3315L18.1893 30.9172C18.0258 30.7538 17.9381 30.6653 17.8786 30.5974C17.8258 30.5369 17.8418 30.5437 17.8617 30.5897L16.0266 31.3848ZM15.9566 29.9811C15.8093 30.4421 15.8342 30.9408 16.0266 31.3848L17.8617 30.5897L17.8617 30.5897L15.9566 29.9811ZM16.6071 28.9647C16.4776 29.123 16.349 29.2793 16.2489 29.4198C16.143 29.5685 16.0298 29.7519 15.9566 29.9811L17.8617 30.5897C17.8465 30.6374 17.8312 30.6457 17.8778 30.5803C17.9302 30.5068 18.0087 30.4101 18.1551 30.2311L16.6071 28.9647ZM17.2114 28.2261C17.2253 28.1228 17.2655 28.1111 17.1524 28.2738C17.0448 28.4286 16.879 28.6324 16.6071 28.9647L18.1551 30.2311C18.4056 29.9249 18.6316 29.6498 18.7947 29.4152C18.9522 29.1885 19.1419 28.8768 19.1935 28.4928L17.2114 28.2261ZM17.2114 28.2261L17.2114 28.2261L19.1935 28.4928C19.2893 27.7806 18.9957 27.0718 18.4244 26.636L17.2114 28.2261ZM16.2619 28.1312C16.6891 28.1739 16.9504 28.2008 17.1359 28.2342C17.331 28.2693 17.2943 28.2894 17.2114 28.2261L18.4244 26.636C18.1163 26.4009 17.7618 26.3147 17.4902 26.2658C17.2089 26.2152 16.8546 26.1805 16.4609 26.1411L16.2619 28.1312ZM15.0832 27.8725C15.297 27.9828 15.5068 28.0324 15.6868 28.0626C15.8569 28.0912 16.0583 28.1108 16.2619 28.1312L16.4609 26.1411C16.2309 26.1181 16.107 26.1052 16.018 26.0902C15.9388 26.0769 15.9555 26.0721 16 26.095L15.0832 27.8725ZM14.1401 26.8304C14.318 27.2804 14.6531 27.6507 15.0832 27.8725L16 26.095L16 26.095L14.1401 26.8304ZM14 25.6318C14 25.8364 13.9995 26.0387 14.011 26.2109C14.0231 26.3929 14.0516 26.6066 14.1401 26.8304L16 26.095C16.0184 26.1416 16.0119 26.1577 16.0065 26.0776C16.0005 25.9875 16 25.863 16 25.6318H14ZM14 24.3683V25.6318H16V24.3683H14ZM14.1402 23.1694C14.0517 23.3932 14.0232 23.607 14.011 23.7891C13.9995 23.9613 14 24.1637 14 24.3683H16C16 24.1371 16.0005 24.0125 16.0065 23.9224C16.0119 23.8423 16.0184 23.8584 16 23.905L14.1402 23.1694ZM15.083 22.1276C14.6531 22.3494 14.3181 22.7195 14.1402 23.1694L16 23.905L16 23.905L15.083 22.1276ZM16.262 21.8688C16.0584 21.8892 15.8569 21.9088 15.6868 21.9374C15.5068 21.9676 15.2969 22.0172 15.083 22.1276L16 23.905C15.9555 23.928 15.9388 23.9231 16.018 23.9098C16.107 23.8948 16.2309 23.8819 16.4611 23.8589L16.262 21.8688ZM16.3616 21.8638H16.3616V23.8638H16.3616V21.8638ZM16.3616 21.8638H16.3616V23.8638H16.3616V21.8638ZM17.2118 21.7738C17.2947 21.7105 17.3314 21.7307 17.1363 21.7658C16.9507 21.7992 16.6894 21.8261 16.2621 21.8688L16.4611 23.8589C16.8548 23.8195 17.2093 23.7848 17.4906 23.7342C17.7623 23.6853 18.1169 23.5989 18.4251 23.3638L17.2118 21.7738ZM17.2118 21.7738L17.2118 21.7738L18.4251 23.3638C18.9961 22.928 19.2896 22.2194 19.194 21.5075L17.2118 21.7738ZM16.6073 21.0351C16.8793 21.3675 17.0451 21.5713 17.1527 21.7261C17.2659 21.8889 17.2257 21.8772 17.2118 21.7738L19.194 21.5075C19.1423 21.1233 18.9526 20.8115 18.7951 20.5848C18.6319 20.3501 18.4058 20.0749 18.1552 19.7686L16.6073 21.0351ZM15.9565 20.0182C16.0297 20.2475 16.143 20.431 16.249 20.5797C16.3491 20.7203 16.4777 20.8766 16.6073 21.0351L18.1552 19.7686C18.0088 19.5896 17.9303 19.4928 17.8779 19.4192C17.8312 19.3538 17.8465 19.3622 17.8618 19.4099L15.9565 20.0182ZM16.0265 18.615C15.8342 19.0589 15.8094 19.5574 15.9565 20.0182L17.8618 19.4099L17.8618 19.4099L16.0265 18.615ZM16.7752 17.668C16.6305 17.8127 16.487 17.9555 16.3734 18.0854C16.2532 18.2228 16.1222 18.3941 16.0265 18.615L17.8618 19.4099C17.8418 19.4559 17.8258 19.4627 17.8787 19.4022C17.9382 19.3342 18.0259 19.2457 18.1894 19.0822L16.7752 17.668ZM17.6685 16.7747L16.7752 17.668L18.1894 19.0822L19.0828 18.1889L17.6685 16.7747ZM17.6685 16.7747L17.6685 16.7747L19.0828 18.1889L19.0828 18.1889L17.6685 16.7747ZM18.6152 16.0262C18.3944 16.1218 18.2232 16.2528 18.0858 16.3729C17.956 16.4865 17.8133 16.63 17.6685 16.7747L19.0828 18.1889C19.2463 18.0254 19.3347 17.9377 19.4026 17.8782C19.4631 17.8254 19.4563 17.8414 19.4103 17.8613L18.6152 16.0262ZM20.0189 15.9561C19.558 15.8089 19.0592 15.8338 18.6152 16.0262L19.4103 17.8613L19.4103 17.8613L20.0189 15.9561ZM21.0354 16.6068C20.877 16.4772 20.7207 16.3486 20.5802 16.2485C20.4316 16.1426 20.2481 16.0294 20.0189 15.9561L19.4103 17.8613C19.3626 17.8461 19.3543 17.8308 19.4197 17.8774C19.4932 17.9298 19.59 18.0083 19.769 18.1547L21.0354 16.6068ZM21.7739 17.211C21.8773 17.2249 21.889 17.2651 21.7262 17.152C21.5714 17.0444 21.3677 16.8787 21.0354 16.6068L19.769 18.1547C20.0751 18.4052 20.3502 18.6312 20.5848 18.7943C20.8114 18.9518 21.123 19.1414 21.507 19.1931L21.7739 17.211ZM21.7739 17.211L21.7739 17.211L21.507 19.1931C22.2193 19.2891 22.9284 18.9954 23.3642 18.4238L21.7739 17.211ZM21.8688 16.2618C21.8261 16.6889 21.7993 16.9501 21.7659 17.1356C21.7308 17.3306 21.7107 17.2939 21.7739 17.211L23.3642 18.4238C23.5992 18.1158 23.6854 17.7614 23.7343 17.4898C23.7849 17.2086 23.8196 16.8544 23.8589 16.4608L21.8688 16.2618ZM22.1274 15.0834C22.0172 15.2972 21.9676 15.5069 21.9374 15.6868C21.9088 15.8569 21.8892 16.0582 21.8688 16.2618L23.8589 16.4608C23.8819 16.2308 23.8948 16.107 23.9098 16.018C23.923 15.9388 23.9279 15.9555 23.905 16L22.1274 15.0834ZM23.1698 14.14C22.7196 14.318 22.3492 14.6532 22.1274 15.0834L23.905 16L23.905 16L23.1698 14.14ZM24.3681 14C24.1635 14 23.9612 13.9995 23.7892 14.011C23.6071 14.0231 23.3935 14.0516 23.1698 14.14L23.905 16C23.8584 16.0184 23.8423 16.0119 23.9224 16.0065C24.0125 16.0005 24.137 16 24.3681 16V14ZM25.6318 14H24.3681V16H25.6318V14ZM26.8304 14.1401C26.6066 14.0516 26.393 14.0231 26.2109 14.011C26.0387 13.9995 25.8364 14 25.6318 14V16C25.863 16 25.9875 16.0005 26.0776 16.0065C26.1577 16.0119 26.1416 16.0184 26.095 16L26.8304 14.1401ZM27.8725 15.0832C27.6507 14.6531 27.2804 14.318 26.8304 14.1401L26.095 16L26.095 16L27.8725 15.0832ZM28 25C28 26.6569 26.6569 28 25 28V30C27.7614 30 30 27.7614 30 25H28ZM25 22C26.6569 22 28 23.3431 28 25H30C30 22.2386 27.7614 20 25 20V22ZM22 25C22 23.3431 23.3431 22 25 22V20C22.2386 20 20 22.2386 20 25H22ZM25 28C23.3431 28 22 26.6569 22 25H20C20 27.7614 22.2386 30 25 30V28Z" fill="#6F6F7D"/>
</svg>
